<svg width="1024" height="1024" viewBox="0 0 1024 1024" fill="none" xmlns="http://www.w3.org/2000/svg">
<path d="M150.401 676C140.411 676 126 648.743 126 634.971C126 625.79 187.73 492.282 231.688 441.785C259.662 407.356 301.282 380.384 359.228 380.384C477.116 380.384 544.783 511.764 662.671 511.764C774.566 511.764 847.918 379.429 865.901 367.952C869.897 365.657 883.554 362.652 891.828 367.952C901.078 373.877 899.957 385.963 899.957 394.215C899.957 410.282 827.331 637.811 634.897 637.811C499.025 637.811 430.639 522.668 322.741 522.668C252.807 522.668 214.553 570.513 162.602 662.324C160.604 666.915 154.57 676 150.401 676Z" fill="white"/>
</svg>
