<svg width="233" height="51" viewBox="0 0 233 51" fill="none" xmlns="http://www.w3.org/2000/svg">
<path d="M203.088 42.9062C200.08 40.0547 198.576 35.9531 198.576 30.6016C198.576 25.2305 200.09 21.1094 203.117 18.2383C206.145 15.3477 210.344 13.9023 215.715 13.9023C221.086 13.9023 225.275 15.3086 228.283 18.1211C231.291 20.9141 232.795 24.9277 232.795 30.1621V31.832C232.795 32.3594 232.619 32.7988 232.268 33.1504C231.936 33.4824 231.506 33.6484 230.979 33.6484H208.918C209.113 36.0508 209.797 37.7988 210.969 38.8926C212.16 39.9863 214.055 40.5332 216.652 40.5332C219.25 40.5332 221.027 39.9473 221.984 38.7754C222.941 37.6035 224.123 37.0078 225.529 36.9883H229.895C230.422 36.9883 230.852 37.1641 231.184 37.5156C231.535 37.8477 231.711 38.2773 231.711 38.8047C231.711 44.4102 226.369 47.2031 215.686 47.1836C210.295 47.1836 206.096 45.7578 203.088 42.9062ZM208.859 27.4668H222.482C222.287 22.8574 220.021 20.5527 215.686 20.5527C211.369 20.5527 209.094 22.8574 208.859 27.4668Z" fill="white"/>
<path d="M160.036 44.8105V16.3047C160.036 15.7773 160.202 15.3477 160.534 15.0156C160.885 14.6641 161.315 14.4883 161.823 14.4883H168.385C168.893 14.4883 169.313 14.6641 169.645 15.0156C169.997 15.3477 170.172 15.7773 170.172 16.3047V18.1504C173.532 15.3184 177.106 13.9023 180.895 13.9023C184.704 13.9023 187.799 15.0645 190.182 17.3887C192.565 19.6934 193.756 23.2285 193.756 27.9941V44.8105C193.756 45.3184 193.581 45.748 193.229 46.0996C192.897 46.4316 192.467 46.5977 191.94 46.5977H185.407C184.899 46.5977 184.469 46.4316 184.118 46.0996C183.786 45.748 183.62 45.3184 183.62 44.8105V27.9941C183.62 23.3262 181.754 20.9922 178.024 20.9922C175.583 20.9922 172.965 22.3887 170.172 25.1816V44.8105C170.172 45.3184 169.997 45.748 169.645 46.0996C169.313 46.4316 168.893 46.5977 168.385 46.5977H161.823C161.315 46.5977 160.885 46.4316 160.534 46.0996C160.202 45.748 160.036 45.3184 160.036 44.8105Z" fill="white"/>
<path d="M143.058 8.36523V7.36914C143.058 6.33398 143.351 5.51367 143.937 4.9082C144.542 4.30273 145.372 4 146.427 4H150.06C151.095 4 151.915 4.30273 152.521 4.9082C153.126 5.49414 153.429 6.31445 153.429 7.36914V8.36523C153.429 9.40039 153.126 10.2207 152.521 10.8262C151.935 11.4316 151.114 11.7344 150.06 11.7344H146.427C145.392 11.7344 144.571 11.4316 143.966 10.8262C143.36 10.2207 143.058 9.40039 143.058 8.36523ZM143.175 44.8105V17.0078C143.175 16.4805 143.341 16.0508 143.673 15.7188C144.024 15.3867 144.454 15.2207 144.962 15.2207H151.524C152.052 15.2207 152.481 15.3965 152.813 15.748C153.146 16.0801 153.312 16.5 153.312 17.0078V44.8105C153.312 45.3379 153.136 45.7676 152.784 46.0996C152.452 46.4316 152.032 46.5977 151.524 46.5977H144.962C144.435 46.5977 144.005 46.4316 143.673 46.0996C143.341 45.7676 143.175 45.3379 143.175 44.8105Z" fill="white"/>
<path d="M126.313 44.8105V6.40234C126.313 5.875 126.479 5.44531 126.812 5.11328C127.163 4.76172 127.593 4.58594 128.101 4.58594H134.663C135.171 4.58594 135.591 4.76172 135.923 5.11328C136.274 5.44531 136.45 5.875 136.45 6.40234V44.8105C136.45 45.3184 136.274 45.748 135.923 46.0996C135.591 46.4316 135.171 46.5977 134.663 46.5977H128.101C127.593 46.5977 127.163 46.4316 126.812 46.0996C126.479 45.748 126.313 45.3184 126.313 44.8105Z" fill="white"/>
<path d="M85.9565 44.8105V16.3047C85.9565 15.7773 86.1226 15.3477 86.4546 15.0156C86.8062 14.6641 87.2358 14.4883 87.7437 14.4883H94.3062C94.814 14.4883 95.2339 14.6641 95.5659 15.0156C95.9175 15.3477 96.0933 15.7773 96.0933 16.3047V18.1504C99.4526 15.3184 103.027 13.9023 106.816 13.9023C110.625 13.9023 113.72 15.0645 116.103 17.3887C118.486 19.6934 119.677 23.2285 119.677 27.9941V44.8105C119.677 45.3184 119.501 45.748 119.15 46.0996C118.818 46.4316 118.388 46.5977 117.861 46.5977H111.328C110.82 46.5977 110.39 46.4316 110.039 46.0996C109.707 45.748 109.541 45.3184 109.541 44.8105V27.9941C109.541 23.3262 107.675 20.9922 103.945 20.9922C101.503 20.9922 98.8862 22.3887 96.0933 25.1816V44.8105C96.0933 45.3184 95.9175 45.748 95.5659 46.0996C95.2339 46.4316 94.814 46.5977 94.3062 46.5977H87.7437C87.2358 46.5977 86.8062 46.4316 86.4546 46.0996C86.1226 45.748 85.9565 45.3184 85.9565 44.8105Z" fill="white"/>
<path d="M67.6895 43.9023V7.36914C67.6895 6.60742 67.9629 5.95312 68.5098 5.40625C69.0566 4.85938 69.7109 4.58594 70.4727 4.58594H75.9219C76.7227 4.58594 77.3867 4.85938 77.9141 5.40625C78.4609 5.95312 78.7344 6.60742 78.7344 7.36914V43.8438C78.7344 44.6055 78.4512 45.2598 77.8848 45.8066C77.3379 46.334 76.6836 46.5977 75.9219 46.5977H70.4727C69.7109 46.5977 69.0566 46.3438 68.5098 45.8359C67.9629 45.3086 67.6895 44.6641 67.6895 43.9023Z" fill="white"/>
<path d="M31.875 0C42.4374 4.42927e-07 51 8.56256 51 19.125V31.875C51 42.4374 42.4374 51 31.875 51H19.125C8.56256 51 4.42956e-07 42.4374 0 31.875V19.125C0 8.56256 8.56256 0 19.125 0H31.875ZM19.125 9.5625C13.8438 9.5625 9.5625 13.8438 9.5625 19.125V31.875C9.5625 37.1562 13.8438 41.4375 19.125 41.4375H31.875C37.1562 41.4375 41.4375 37.1562 41.4375 31.875V19.125C41.4375 13.8438 37.1562 9.5625 31.875 9.5625H19.125ZM22.7324 16.0117C24.5883 16.0118 26.0928 17.4281 26.0928 19.1748V31.8262C26.0925 33.5727 24.5882 34.9883 22.7324 34.9883H19.3721C17.5163 34.9883 16.0119 33.5728 16.0117 31.8262V19.1748C16.0117 17.428 17.5161 16.0117 19.3721 16.0117H22.7324Z" fill="white"/>
</svg>
