<svg width="226" height="51" viewBox="0 0 226 51" fill="none" xmlns="http://www.w3.org/2000/svg">
<g clip-path="url(#clip0_64_19)">
<path d="M75.5185 3.36364V47H66.2926V3.36364H75.5185ZM91.4153 28.0795V47H82.3386V14.2727H90.9891V20.0469H91.3727C92.0971 18.1435 93.3116 16.6378 95.0161 15.5298C96.7207 14.4077 98.7874 13.8466 101.216 13.8466C103.489 13.8466 105.471 14.3437 107.161 15.3381C108.851 16.3324 110.165 17.7528 111.103 19.5994C112.04 21.4318 112.509 23.6193 112.509 26.1619V47H103.432V27.7812C103.447 25.7784 102.935 24.2159 101.898 23.0938C100.861 21.9574 99.4337 21.3892 97.6156 21.3892C96.394 21.3892 95.3144 21.652 94.3769 22.1776C93.4536 22.7031 92.7292 23.4702 92.2036 24.4787C91.6923 25.473 91.4295 26.6733 91.4153 28.0795ZM128.139 3.36364V47H119.063V3.36364H128.139ZM134.81 47V14.2727H143.887V47H134.81ZM139.37 10.054C138.021 10.054 136.863 9.60653 135.897 8.71165C134.945 7.80256 134.47 6.71591 134.47 5.4517C134.47 4.2017 134.945 3.12926 135.897 2.23438C136.863 1.32528 138.021 0.870736 139.37 0.870736C140.72 0.870736 141.87 1.32528 142.822 2.23438C143.788 3.12926 144.271 4.2017 144.271 5.4517C144.271 6.71591 143.788 7.80256 142.822 8.71165C141.87 9.60653 140.72 10.054 139.37 10.054ZM159.635 28.0795V47H150.558V14.2727H159.209V20.0469H159.592C160.317 18.1435 161.531 16.6378 163.236 15.5298C164.94 14.4077 167.007 13.8466 169.436 13.8466C171.709 13.8466 173.69 14.3437 175.381 15.3381C177.071 16.3324 178.385 17.7528 179.322 19.5994C180.26 21.4318 180.729 23.6193 180.729 26.1619V47H171.652V27.7812C171.666 25.7784 171.155 24.2159 170.118 23.0938C169.081 21.9574 167.653 21.3892 165.835 21.3892C164.613 21.3892 163.534 21.652 162.596 22.1776C161.673 22.7031 160.949 23.4702 160.423 24.4787C159.912 25.473 159.649 26.6733 159.635 28.0795ZM202.197 47.6392C198.831 47.6392 195.933 46.9574 193.504 45.5938C191.089 44.2159 189.228 42.2699 187.922 39.7557C186.615 37.2273 185.961 34.2372 185.961 30.7855C185.961 27.419 186.615 24.4645 187.922 21.9219C189.228 19.3793 191.068 17.3977 193.44 15.9773C195.826 14.5568 198.625 13.8466 201.835 13.8466C203.994 13.8466 206.004 14.1946 207.865 14.8906C209.74 15.5724 211.373 16.6023 212.765 17.9801C214.172 19.358 215.265 21.0909 216.047 23.179C216.828 25.2528 217.218 27.6818 217.218 30.4659V32.9588H189.583V27.3338H208.674C208.674 26.027 208.39 24.8693 207.822 23.8608C207.254 22.8523 206.466 22.0639 205.457 21.4957C204.463 20.9134 203.305 20.6222 201.984 20.6222C200.606 20.6222 199.385 20.9418 198.319 21.581C197.268 22.206 196.444 23.0511 195.848 24.1165C195.251 25.1676 194.946 26.3395 194.931 27.6321V32.9801C194.931 34.5994 195.23 35.9986 195.826 37.1776C196.437 38.3565 197.297 39.2656 198.404 39.9048C199.512 40.544 200.826 40.8636 202.346 40.8636C203.355 40.8636 204.278 40.7216 205.116 40.4375C205.954 40.1534 206.672 39.7273 207.268 39.1591C207.865 38.5909 208.319 37.8949 208.632 37.071L217.027 37.625C216.6 39.642 215.727 41.4034 214.406 42.9091C213.099 44.4006 211.409 45.5653 209.335 46.4034C207.275 47.2273 204.896 47.6392 202.197 47.6392Z" fill="white"/>
<path d="M33.5 0C42.8888 0 50.5 7.61116 50.5 17V34C50.5 43.3888 42.8888 51 33.5 51H16.5C7.11116 51 -0.5 43.3888 -0.5 34V17C-0.5 7.61116 7.11116 8.01952e-08 16.5 0H33.5ZM34.9678 31.0527C33.5115 31.0527 31.8532 31.3899 30.0088 32.0293L30.0059 32.0303C28.2074 32.6622 26.5589 33.3692 25.0635 34.1533C23.6611 34.8779 22.1369 35.5469 20.4912 36.1582L20.4883 36.1592C18.8842 36.7636 17.5994 37.0399 16.6113 37.04H16.4316C15.0995 37.04 14.0732 36.7761 13.3018 36.3057L13.1514 36.209C12.4216 35.7002 11.6802 34.6596 10.9912 32.9277C10.9867 32.9118 10.9843 32.8955 10.9795 32.8809L10.9092 32.7139L10.8613 32.6309C10.8286 32.5437 10.7851 32.4674 10.7393 32.4023C10.6876 32.3021 10.6144 32.1958 10.5107 32.1035C10.453 32.037 10.3876 31.9777 10.3145 31.9277C10.2082 31.84 10.0914 31.7753 9.97168 31.7285C9.89199 31.6914 9.80963 31.6586 9.72949 31.6318C9.55808 31.5747 9.38533 31.5547 9.22559 31.5547C8.5274 31.5547 7.89826 31.7936 7.37207 32.2539C6.88549 32.6766 6.56152 33.229 6.56152 33.8965C6.56165 34.3274 6.71076 34.7967 6.91699 35.2607C7.30746 36.1393 7.69039 36.9068 8.06641 37.5586L8.08594 37.5898C8.4958 38.2302 9.03631 38.9314 9.69824 39.6914L10.3008 39.166L9.69824 39.6924L9.70703 39.7012C10.4363 40.5113 11.3262 41.1298 12.3643 41.5557L12.3701 41.5586C13.4344 41.9842 14.614 42.1895 15.8945 42.1895C17.4613 42.1893 19.2328 41.8559 21.1963 41.2178C23.1406 40.5859 24.8896 39.8776 26.4385 39.0908L26.4375 39.0898C27.9375 38.3401 29.5227 37.6609 31.1914 37.0498C32.8493 36.4427 34.1468 36.166 35.1113 36.166C35.8227 36.1662 36.4846 36.424 37.1191 36.999C37.8149 37.6296 38.5977 38.585 39.4629 39.8945V39.8936C39.8988 40.6284 40.5533 41.1915 41.459 41.1484H41.4688L41.4775 41.1475C42.0545 41.1061 42.5356 40.8285 42.8965 40.3955L42.9062 40.3838L42.916 40.3711C43.2843 39.8921 43.4404 39.3147 43.4404 38.7002C43.4404 38.2264 43.3513 37.7698 43.1348 37.3652H43.1357C42.1095 35.3812 41.0607 33.8525 39.9746 32.8408L39.7568 32.6455C38.5231 31.5558 36.8961 31.0529 34.9678 31.0527ZM41.5293 40.3369L41.4209 40.3496C41.4619 40.3467 41.5025 40.3409 41.542 40.334C41.5379 40.3347 41.5334 40.3362 41.5293 40.3369ZM38.542 37.3213L38.5781 37.3643C38.5434 37.3239 38.5081 37.2843 38.4736 37.2451C38.496 37.2704 38.5196 37.2954 38.542 37.3213ZM34.9678 19.9326C33.5115 19.9326 31.8533 20.2698 30.0088 20.9092L30.0059 20.9102C28.2073 21.5421 26.5589 22.249 25.0635 23.0332C23.6611 23.7578 22.1369 24.4268 20.4912 25.0381L20.4883 25.0391C18.8842 25.6435 17.5994 25.9198 16.6113 25.9199H16.4316C15.0996 25.9199 14.0732 25.656 13.3018 25.1855L13.1514 25.0889C12.4216 24.5801 11.6802 23.5394 10.9912 21.8076C10.9868 21.7917 10.9842 21.7753 10.9795 21.7607L10.9092 21.5938L10.8613 21.5107C10.8287 21.4237 10.7851 21.3473 10.7393 21.2822C10.6877 21.182 10.6143 21.0757 10.5107 20.9834C10.4531 20.917 10.3876 20.8576 10.3145 20.8076C10.2082 20.7199 10.0914 20.6552 9.97168 20.6084C9.89201 20.5712 9.80961 20.5385 9.72949 20.5117C9.55808 20.4546 9.38533 20.4346 9.22559 20.4346C8.52738 20.4346 7.89827 20.6735 7.37207 21.1338C6.88553 21.5565 6.56152 22.1089 6.56152 22.7764C6.5617 23.2072 6.71079 23.6767 6.91699 24.1406C7.30743 25.0191 7.69042 25.7868 8.06641 26.4385L8.08594 26.4697C8.49579 27.11 9.03637 27.8113 9.69824 28.5713L10.3008 28.0459L9.69824 28.5723L9.70703 28.5811C10.4363 29.3912 11.3262 30.0097 12.3643 30.4355L12.3701 30.4385C13.4344 30.8641 14.614 31.0693 15.8945 31.0693C17.4613 31.0692 19.2328 30.7358 21.1963 30.0977C23.1406 29.4657 24.8895 28.7575 26.4385 27.9707L26.4375 27.9697C27.9375 27.2199 29.5227 26.5408 31.1914 25.9297C32.8493 25.3226 34.1468 25.0459 35.1113 25.0459C35.8227 25.0461 36.4846 25.3039 37.1191 25.8789C37.8148 26.5095 38.5977 27.465 39.4629 28.7744V28.7734C39.8988 29.5082 40.5534 30.0714 41.459 30.0283H41.4688L41.4775 30.0273C42.0545 29.986 42.5356 29.7084 42.8965 29.2754L42.9062 29.2637L42.916 29.251C43.2842 28.7721 43.4404 28.1945 43.4404 27.5801C43.4404 27.1063 43.3513 26.6497 43.1348 26.2451H43.1357C42.1096 24.2612 41.0606 22.7323 39.9746 21.7207L39.7568 21.5254C38.5231 20.4357 36.8961 19.9327 34.9678 19.9326ZM15.0547 30.2354C15.3275 30.2573 15.608 30.2686 15.8945 30.2686C16.0764 30.2685 16.2622 30.2636 16.4512 30.2539L16.4521 30.2549C16.2629 30.2646 16.0767 30.2695 15.8945 30.2695L15.4512 30.2598C15.3176 30.2543 15.1851 30.2459 15.0547 30.2354ZM42.2812 28.7637L42.1895 28.8643C42.1599 28.8941 42.1285 28.921 42.0977 28.9473C42.1612 28.8932 42.2233 28.8322 42.2812 28.7627V28.7637ZM37.6562 25.2852C37.7555 25.3751 37.8557 25.4714 37.957 25.5723C37.8558 25.4716 37.7554 25.376 37.6562 25.2861C37.6064 25.241 37.5535 25.1995 37.5029 25.1572C37.5534 25.1994 37.6065 25.2401 37.6562 25.2852ZM30.7871 21.4941C30.8355 21.4786 30.8836 21.4614 30.9316 21.4463L31.0859 21.4004C30.9873 21.4308 30.8874 21.462 30.7871 21.4941ZM34.9678 8.81152C33.5115 8.81152 31.8532 9.14872 30.0088 9.78809L30.0059 9.78906C28.2074 10.421 26.5589 11.128 25.0635 11.9121C23.6611 12.6367 22.1369 13.3057 20.4912 13.917L20.4883 13.918C18.8842 14.5224 17.5994 14.7987 16.6113 14.7988H16.4316C15.0995 14.7988 14.0732 14.5349 13.3018 14.0645L13.1514 13.9678C12.4216 13.459 11.6802 12.4184 10.9912 10.6865C10.9867 10.6706 10.9843 10.6543 10.9795 10.6396L10.9092 10.4727L10.8613 10.3896C10.8286 10.3025 10.7851 10.2262 10.7393 10.1611C10.6876 10.0609 10.6144 9.95458 10.5107 9.8623C10.453 9.79583 10.3876 9.73651 10.3145 9.68652C10.2082 9.59882 10.0914 9.53412 9.97168 9.4873C9.89198 9.45014 9.80964 9.41736 9.72949 9.39062C9.55808 9.33349 9.38533 9.31352 9.22559 9.31348C8.52741 9.31349 7.89826 9.5524 7.37207 10.0127C6.8855 10.4354 6.56154 10.9878 6.56152 11.6553C6.56165 12.0861 6.71076 12.5555 6.91699 13.0195C7.30746 13.8981 7.69039 14.6656 8.06641 15.3174L8.08594 15.3486C8.4958 15.989 9.0363 16.6902 9.69824 17.4502L10.3008 16.9248L9.69824 17.4512L9.70703 17.46C10.4363 18.2701 11.3262 18.8886 12.3643 19.3145L12.3701 19.3174C13.4344 19.743 14.614 19.9482 15.8945 19.9482C17.4613 19.9481 19.2328 19.6147 21.1963 18.9766C23.1406 18.3447 24.8896 17.6364 26.4385 16.8496L26.4375 16.8486C27.9375 16.0989 29.5227 15.4197 31.1914 14.8086C32.8493 14.2015 34.1468 13.9248 35.1113 13.9248C35.8227 13.925 36.4846 14.1828 37.1191 14.7578C37.8149 15.3884 38.5977 16.3438 39.4629 17.6533V17.6523C39.8988 18.3872 40.5533 18.9503 41.459 18.9072H41.4688L41.4775 18.9062C42.0545 18.8649 42.5356 18.5873 42.8965 18.1543L42.9062 18.1426L42.916 18.1299C43.2843 17.6509 43.4404 17.0734 43.4404 16.459C43.4404 15.9852 43.3513 15.5286 43.1348 15.124H43.1357C42.1095 13.14 41.0607 11.6112 39.9746 10.5996L39.7568 10.4043C38.5231 9.31462 36.8961 8.81165 34.9678 8.81152ZM41.5293 18.0957L41.4209 18.1084C41.4619 18.1055 41.5025 18.0997 41.542 18.0928C41.5379 18.0935 41.5334 18.095 41.5293 18.0957ZM39.0459 10.8506L39.2344 11.0098C39.1702 10.9529 39.104 10.8971 39.0371 10.8438C39.0399 10.846 39.0431 10.8484 39.0459 10.8506Z" fill="white"/>
</g>
<defs>
<clipPath id="clip0_64_19">
<rect width="226" height="51" fill="white"/>
</clipPath>
</defs>
</svg>
